<?xml version="1.0" encoding="UTF-8" standalone="no"?>
<!DOCTYPE svg PUBLIC "-//W3C//DTD SVG 1.1//EN" "http://www.w3.org/Graphics/SVG/1.1/DTD/svg11.dtd">
<svg xmlns="http://www.w3.org/2000/svg" version="1.1" viewBox="0 0 1024 1024" width="1024.0pt" height="1024.0pt">
<path d="M 0.00 0.00 L 1024.00 0.00 L 1024.00 1024.00 L 0.00 1024.00 L 0.00 0.00 Z" fill="#ffffff" />
<path d="M 519.00 209.69 C 523.72 209.51 528.32 210.44 533.02 210.48 C 587.32 214.17 640.26 233.14 684.75 264.43 C 720.26 289.40 750.53 322.11 772.34 359.66 C 793.09 394.79 806.10 434.11 811.33 474.52 C 816.33 474.47 821.34 474.40 826.34 474.51 C 829.34 476.70 832.29 477.65 832.37 481.98 C 832.42 501.64 832.42 521.36 832.37 541.02 C 832.42 544.37 830.51 546.12 827.77 547.57 C 827.44 548.48 826.96 549.03 826.31 549.22 C 821.32 549.28 816.31 549.22 811.31 549.19 C 805.21 598.62 786.74 646.33 757.80 686.89 C 724.36 734.06 677.30 771.33 623.55 792.72 C 585.51 808.12 543.98 815.29 503.00 814.30 C 498.33 814.46 493.78 813.51 489.11 813.52 C 438.97 809.99 389.89 793.61 347.68 766.30 C 298.28 734.54 258.28 688.00 234.62 634.22 C 222.64 607.25 214.73 578.52 211.15 549.22 C 206.31 549.25 201.48 549.15 196.64 549.31 C 195.77 547.72 194.81 546.69 193.43 545.55 C 191.73 544.13 191.63 542.06 191.59 540.00 C 191.59 521.67 191.62 503.33 191.58 485.00 C 191.62 483.37 191.47 481.59 191.95 480.02 C 192.61 477.44 194.93 476.68 196.61 474.42 C 201.48 474.49 206.36 474.53 211.24 474.40 C 215.46 439.19 226.22 404.95 242.42 373.42 C 244.99 367.85 248.46 362.81 251.36 357.40 C 280.84 307.86 324.81 266.98 376.43 241.32 C 420.46 219.25 469.80 208.52 519.00 209.69 Z" fill="#000000" />
<path d="M 655.65 257.34 C 681.14 271.77 704.44 290.17 724.49 311.52 C 766.47 356.02 794.04 413.71 801.53 474.47 C 798.86 474.50 796.20 474.49 793.53 474.47 C 789.67 447.09 782.34 420.32 770.83 395.15 C 744.46 336.26 697.49 287.13 639.90 258.04 C 609.48 242.48 576.00 232.59 542.02 229.00 C 487.64 222.98 431.62 233.02 382.85 257.85 C 337.01 280.97 297.65 316.89 270.28 360.32 C 248.35 394.84 234.38 434.04 228.86 474.53 C 226.29 474.49 223.72 474.49 221.15 474.52 C 221.25 467.51 222.95 460.90 224.14 454.04 C 231.06 419.68 244.25 386.63 262.86 356.93 C 285.30 321.05 315.55 290.12 350.99 266.97 C 388.66 242.22 432.21 226.27 477.02 221.25 C 538.47 213.87 601.92 226.57 655.65 257.34 Z" fill="#efa217" />
<path d="M 536.00 231.54 C 581.55 235.47 625.99 250.74 664.27 275.74 C 706.17 302.87 740.67 341.35 762.99 386.00 C 777.04 413.72 785.94 443.68 790.40 474.40 C 712.47 474.59 634.49 474.39 556.56 474.49 C 553.51 468.63 551.03 462.57 548.39 456.52 C 546.61 452.38 546.04 448.20 545.32 443.77 C 544.52 438.31 546.60 433.94 547.80 428.69 C 548.40 429.66 549.01 430.63 549.61 431.59 C 549.66 430.27 549.71 428.94 549.75 427.61 C 552.09 430.18 554.62 432.39 557.76 433.95 C 557.32 432.54 556.63 431.22 555.68 430.00 L 558.88 430.79 C 557.73 426.64 555.59 422.39 556.75 418.00 C 558.15 412.77 556.55 407.69 558.80 402.55 C 561.04 397.63 557.10 393.74 558.99 388.97 C 560.69 384.89 564.43 382.74 568.22 380.86 C 573.97 379.33 580.03 378.78 585.83 377.37 C 586.75 377.15 587.62 376.75 588.44 376.17 C 582.28 378.08 576.29 377.01 569.98 376.91 C 570.72 376.41 571.46 375.92 572.21 375.44 C 577.48 376.76 582.64 376.05 587.83 374.81 C 591.19 373.92 594.04 375.19 597.07 373.32 C 600.91 371.20 605.60 369.75 608.93 366.91 C 614.83 361.45 610.66 350.14 603.08 348.75 C 599.52 348.05 595.63 348.17 592.03 348.44 C 589.28 349.95 586.94 351.89 583.91 352.87 C 580.43 354.01 576.92 355.01 573.47 356.27 C 564.49 358.76 555.34 362.34 546.03 362.61 C 541.19 363.57 536.81 366.47 532.00 367.65 C 526.08 368.62 520.14 368.67 514.17 368.74 C 514.17 374.44 515.03 380.64 513.52 386.18 C 516.19 388.34 519.72 389.36 523.07 388.44 C 525.29 387.55 526.97 386.00 528.48 384.20 C 527.53 382.40 527.62 381.87 525.49 381.45 C 524.46 380.23 523.39 379.11 522.19 378.05 C 521.16 378.95 520.10 379.79 518.99 380.58 C 518.38 379.31 517.76 378.04 517.15 376.77 L 520.23 378.89 C 520.69 377.92 521.16 376.95 521.63 375.97 C 524.11 378.32 526.11 377.28 528.86 378.06 C 529.51 380.28 529.29 380.55 531.46 381.91 C 530.61 382.75 529.75 383.60 528.91 384.45 C 534.75 384.71 535.93 378.12 541.21 376.58 C 545.08 375.87 549.06 374.58 553.00 374.78 C 558.61 374.94 564.18 374.49 569.79 374.91 C 569.86 375.42 569.94 375.92 570.02 376.43 C 565.77 375.50 561.45 376.01 557.00 375.85 C 551.64 375.68 546.29 376.44 541.13 377.86 C 537.54 378.90 536.73 382.57 533.43 384.32 C 531.18 385.90 527.84 386.02 526.28 388.24 C 523.95 391.16 521.68 392.82 518.16 394.10 C 517.20 393.51 516.25 392.84 515.21 392.39 C 513.12 394.21 510.72 393.60 508.20 393.25 C 505.07 392.44 501.56 391.87 498.85 390.15 C 494.94 387.78 490.77 386.99 488.20 382.88 C 487.28 381.60 486.64 379.35 485.10 378.78 C 478.09 376.46 471.27 376.70 463.99 376.91 C 457.66 377.98 451.36 377.55 444.97 377.63 C 440.84 377.73 437.11 376.13 433.00 376.04 C 433.24 375.40 433.49 374.76 433.74 374.12 C 436.04 374.92 438.52 376.02 440.96 376.16 C 452.17 376.91 462.79 375.95 474.00 375.62 C 478.07 375.50 482.25 376.54 486.00 378.08 C 488.63 379.70 489.17 383.34 492.01 385.01 C 496.75 387.88 501.26 390.64 506.79 391.67 C 509.40 392.10 512.76 393.62 514.73 391.07 C 512.47 388.49 510.85 387.26 507.44 388.72 C 506.52 387.85 505.50 387.23 504.40 386.63 C 503.70 384.54 502.41 383.54 500.72 382.25 C 500.48 380.13 500.17 378.02 499.74 375.92 L 503.30 375.04 C 504.91 376.63 503.74 378.88 505.56 380.41 C 507.05 382.47 510.27 381.40 512.44 381.38 C 513.86 377.53 513.35 372.68 512.22 368.79 C 509.20 366.41 504.60 367.37 501.00 367.13 C 496.45 366.80 491.48 366.41 487.21 364.73 C 484.56 363.11 481.88 363.77 478.98 363.06 C 471.85 361.43 465.05 359.93 458.51 356.51 C 457.00 355.45 455.73 353.68 453.99 353.08 C 447.35 350.60 440.09 349.32 433.00 349.58 C 428.82 349.65 423.97 349.09 420.11 351.00 C 416.89 352.93 414.11 357.81 415.75 361.49 C 416.84 365.16 418.08 368.38 421.47 370.52 C 424.23 372.03 427.39 374.47 430.63 374.45 C 431.54 375.61 432.44 376.56 433.84 377.12 C 441.44 380.37 449.31 381.89 457.50 382.63 C 460.54 383.64 463.89 384.59 466.52 386.48 C 468.47 387.83 469.45 390.00 470.67 391.98 C 469.37 394.96 467.98 397.63 468.07 401.00 C 467.77 407.75 468.49 414.03 466.92 420.60 C 466.83 424.39 467.18 428.09 470.48 430.53 C 470.52 432.36 470.56 434.20 470.63 436.03 C 471.55 435.43 472.45 434.81 473.33 434.15 C 473.83 435.40 474.35 436.63 474.90 437.85 C 475.90 436.11 475.99 434.54 476.02 432.55 C 476.94 433.41 477.84 434.58 479.02 435.05 C 479.96 435.44 482.04 435.28 482.33 436.47 C 483.49 439.16 484.84 442.01 484.82 444.99 C 485.40 452.03 480.93 459.14 479.34 465.94 C 478.06 468.80 476.97 471.73 475.50 474.50 C 394.40 474.43 313.27 474.49 232.17 474.47 C 238.76 423.87 259.71 375.42 291.73 335.72 C 315.72 305.80 345.95 280.85 379.87 262.96 C 427.40 237.67 482.41 226.69 536.00 231.54 Z" fill="#ffffff" />
<path d="M 514.98 281.15 C 517.46 281.61 519.96 281.54 522.45 281.80 C 524.68 283.07 527.13 284.24 529.17 285.79 C 532.20 289.53 536.54 293.47 538.18 297.99 C 539.18 302.71 541.28 306.97 541.79 311.80 C 543.05 318.62 547.19 325.61 544.50 332.45 C 543.57 337.34 544.85 342.53 543.53 347.48 C 543.09 350.99 542.09 355.06 545.59 357.30 C 547.89 358.52 550.64 356.58 552.80 355.78 C 557.60 353.52 562.67 354.21 567.51 352.47 C 574.10 350.37 581.09 349.91 587.87 348.49 L 587.46 349.97 C 581.13 353.19 573.63 354.73 566.85 357.11 C 560.24 359.07 553.92 360.93 547.04 361.47 C 541.76 361.85 537.89 364.74 533.09 366.18 C 530.05 366.70 527.11 367.35 524.00 367.24 C 520.46 367.33 516.52 366.81 513.17 367.89 C 511.17 367.02 508.99 366.02 506.83 365.66 C 502.24 365.28 497.14 366.16 492.70 365.00 C 490.16 364.43 487.88 364.33 485.87 362.48 C 482.83 362.43 479.87 362.49 476.94 361.53 C 471.02 359.83 463.65 358.56 458.61 354.87 C 466.09 356.79 472.39 353.98 479.26 357.88 C 479.30 354.97 479.04 352.01 479.32 349.11 C 479.97 346.65 481.25 344.33 482.31 342.04 C 482.48 338.63 482.58 335.37 481.75 332.03 C 481.48 327.39 481.61 322.66 481.76 318.01 C 483.36 311.60 486.01 305.84 488.53 299.79 C 491.27 291.49 498.65 284.52 507.09 282.24 C 509.70 281.56 512.27 280.48 514.98 281.15 Z" fill="#000000" />
<path d="M 506.60 370.58 C 507.05 371.13 507.49 371.67 507.93 372.22 C 508.40 371.51 508.88 370.79 509.34 370.07 C 509.48 371.08 509.99 371.98 510.89 372.77 C 509.96 374.84 509.26 376.47 509.40 378.82 C 507.24 378.30 506.22 375.77 504.09 374.81 C 505.58 373.41 506.58 372.74 506.60 370.58 Z" fill="#ffffff" />
<path d="M 519.23 373.43 L 519.93 373.40 C 520.65 374.91 520.38 375.66 519.11 375.67 C 518.55 375.11 518.59 374.37 519.23 373.43 Z" fill="#ffffff" />
<path d="M 503.81 380.84 C 507.02 383.27 509.92 382.44 513.68 382.55 L 512.13 384.39 C 509.32 384.49 506.58 384.32 504.01 383.05 L 503.81 380.84 Z" fill="#000000" />
<path d="M 516.56 389.62 C 518.39 389.66 520.22 389.69 522.05 389.75 C 521.62 392.60 515.42 394.26 516.56 389.62 Z" fill="#000000" />
<path d="M 263.28 497.68 C 265.40 499.84 266.00 500.38 264.36 503.17 C 263.86 501.31 263.83 499.82 262.00 498.77 C 260.13 499.88 260.12 501.13 259.74 503.11 C 259.30 502.39 258.87 501.67 258.44 500.95 C 259.86 498.52 260.16 497.38 263.28 497.68 Z" fill="#efa217" />
<path d="M 232.50 498.43 C 234.24 498.32 236.00 498.37 237.74 498.38 C 238.01 502.00 237.17 506.11 238.64 509.41 C 241.78 509.26 244.92 509.43 248.06 509.24 C 249.31 506.54 248.25 501.55 248.60 498.40 C 250.50 498.36 252.37 498.40 254.27 498.55 C 254.26 505.03 254.26 511.52 254.26 518.00 C 254.22 520.65 254.56 523.07 253.73 525.60 C 252.01 525.55 250.30 525.48 248.58 525.35 C 248.60 521.66 248.58 517.97 248.61 514.27 C 245.12 514.21 241.63 514.23 238.14 514.24 C 237.47 517.94 237.94 521.76 237.70 525.54 C 235.96 525.53 234.21 525.51 232.47 525.50 C 232.41 516.49 232.32 507.44 232.50 498.43 Z" fill="#efa217" />
<path d="M 293.27 498.42 C 294.95 498.31 296.67 498.41 298.36 498.47 C 298.32 502.09 298.26 505.71 298.48 509.34 C 301.44 508.99 306.12 509.94 308.66 508.87 C 309.04 505.31 308.42 501.86 309.24 498.32 C 310.99 498.33 312.72 498.42 314.45 498.61 C 314.30 507.56 314.45 516.51 314.37 525.46 C 312.84 525.33 310.44 526.02 309.16 525.14 C 308.36 521.68 308.98 517.81 308.79 514.25 C 305.31 514.21 301.83 514.21 298.35 514.28 C 298.33 518.00 298.34 521.73 298.32 525.46 C 296.47 525.51 294.62 525.50 292.77 525.45 C 292.76 517.97 292.78 510.48 292.74 503.00 C 292.88 501.62 292.42 499.57 293.27 498.42 Z" fill="#efa217" />
<path d="M 389.83 499.26 C 389.75 500.87 389.54 502.32 388.96 503.82 C 386.23 502.97 381.84 501.41 379.31 503.28 C 377.84 503.95 378.15 506.00 378.74 507.16 C 381.40 509.39 385.33 509.60 388.18 511.79 C 390.18 513.29 391.65 515.40 391.42 518.00 C 391.78 521.54 388.30 524.82 385.06 525.48 C 380.67 526.02 376.35 526.15 372.47 523.68 C 372.94 522.31 373.40 520.92 373.85 519.54 C 377.64 520.81 382.20 522.94 385.59 519.62 C 385.71 518.50 385.78 517.38 385.80 516.25 C 382.18 513.46 376.74 513.37 374.21 509.75 C 371.52 506.68 372.52 500.99 376.28 499.24 C 380.84 496.89 385.21 497.70 389.83 499.26 Z" fill="#efa217" />
<path d="M 610.91 499.20 C 610.77 500.71 610.58 502.21 610.35 503.71 C 607.58 503.17 602.76 501.29 600.33 503.35 C 598.48 504.51 599.31 507.08 600.96 507.97 C 604.23 509.69 609.01 510.46 611.33 513.65 C 613.97 517.73 612.43 523.02 607.90 524.94 C 603.64 526.41 597.41 526.15 593.53 523.64 C 594.02 522.28 594.51 520.92 594.98 519.55 C 599.39 520.97 603.24 522.97 607.18 519.25 C 607.20 518.39 607.22 517.54 607.25 516.68 C 603.97 513.57 599.46 513.74 596.25 510.78 C 592.83 507.82 593.38 500.60 597.94 498.96 C 602.39 496.96 606.47 497.80 610.91 499.20 Z" fill="#efa217" />
<path d="M 262.00 498.77 C 263.83 499.82 263.86 501.31 264.36 503.17 C 262.65 503.90 261.41 504.06 259.74 503.11 C 260.12 501.13 260.13 499.88 262.00 498.77 Z" fill="#efa217" />
<path d="M 493.33 498.36 C 495.06 498.38 496.79 498.40 498.53 498.42 C 498.52 507.45 498.58 516.49 498.49 525.53 C 496.08 525.18 493.72 526.62 493.18 523.37 C 490.52 526.11 488.54 526.13 484.89 525.42 C 477.73 521.88 477.88 508.94 485.28 505.75 C 488.71 505.08 490.68 505.74 493.30 507.86 C 493.27 504.70 493.29 501.53 493.33 498.36 Z" fill="#efa217" />
<path d="M 616.51 498.39 C 618.31 498.34 620.08 498.37 621.87 498.54 C 621.70 501.66 621.67 504.71 622.27 507.79 C 624.16 506.68 625.63 505.36 627.99 505.55 C 631.42 504.97 634.35 508.51 634.44 511.71 C 634.71 516.29 634.56 520.92 634.52 525.51 C 632.81 525.51 631.10 525.52 629.39 525.52 C 629.24 521.67 629.36 517.82 629.32 513.98 C 629.31 512.56 628.84 510.49 627.43 509.80 C 625.24 509.28 622.79 511.06 621.84 512.94 C 621.66 517.06 621.82 521.21 621.83 525.34 C 620.06 525.51 618.31 525.55 616.53 525.51 C 616.46 516.47 616.49 507.43 616.51 498.39 Z" fill="#efa217" />
<path d="M 702.52 498.41 C 704.33 498.37 706.14 498.40 707.95 498.50 C 707.85 507.47 707.96 516.45 707.90 525.42 C 706.49 525.48 705.08 525.54 703.67 525.61 C 703.17 524.92 702.67 524.23 702.16 523.54 C 699.53 527.18 693.57 526.23 691.14 522.84 C 688.96 520.15 689.05 516.36 689.31 513.09 C 689.72 508.86 693.56 504.72 698.07 505.56 C 699.68 505.48 701.19 507.09 702.50 507.91 C 702.49 504.75 702.51 501.58 702.52 498.41 Z" fill="#efa217" />
<path d="M 468.18 500.40 C 469.37 500.35 470.56 500.33 471.76 500.35 C 471.82 502.14 471.89 503.92 471.98 505.71 C 474.02 505.88 475.88 505.22 477.50 506.73 L 477.46 509.25 C 475.96 510.04 473.70 509.63 472.02 509.80 C 471.97 513.59 471.19 518.12 472.71 521.68 C 474.03 521.53 475.36 521.38 476.69 521.23 C 476.99 522.36 477.30 523.50 477.61 524.63 C 474.16 526.46 468.10 526.78 466.87 522.03 C 466.20 518.23 466.63 514.20 466.57 510.35 C 465.56 509.99 464.55 509.63 463.54 509.28 C 463.40 505.89 463.75 506.23 466.70 505.46 C 467.14 503.78 467.50 502.00 468.18 500.40 Z" fill="#efa217" />
<path d="M 397.57 500.26 C 398.84 500.36 400.11 500.45 401.38 500.54 C 401.38 502.25 401.39 503.96 401.39 505.66 C 403.18 505.67 404.94 505.75 406.69 506.17 C 406.68 507.33 406.68 508.50 406.67 509.67 C 404.95 509.69 403.23 509.71 401.51 509.72 C 401.33 513.64 401.23 517.54 401.67 521.45 C 403.15 521.43 404.63 521.37 406.10 521.26 C 406.32 522.45 406.55 523.64 406.79 524.83 C 403.85 526.14 398.40 526.70 396.66 523.24 C 395.56 518.98 396.36 514.23 395.87 509.83 C 394.97 509.75 394.08 509.68 393.19 509.60 C 393.20 508.49 393.21 507.38 393.22 506.27 C 394.08 506.03 394.93 505.77 395.78 505.49 C 396.80 504.15 396.94 501.86 397.57 500.26 Z" fill="#efa217" />
<path d="M 259.53 505.79 C 261.19 505.68 262.86 505.72 264.53 505.72 C 264.81 512.30 264.64 518.92 264.62 525.51 C 262.88 525.51 261.14 525.52 259.40 525.52 C 259.43 518.96 259.16 512.34 259.53 505.79 Z" fill="#efa217" />
<path d="M 420.84 505.59 C 423.93 505.49 422.17 508.90 422.29 510.73 C 420.84 510.70 419.39 510.66 417.94 510.63 C 417.21 511.10 416.48 511.57 415.75 512.03 C 415.43 516.53 415.65 521.00 415.55 525.51 C 413.81 525.52 412.07 525.52 410.33 525.53 C 410.17 519.03 410.30 512.53 410.27 506.03 C 411.58 505.86 412.89 505.73 414.20 505.62 C 414.62 506.38 415.03 507.15 415.44 507.91 C 417.24 506.56 418.35 505.13 420.84 505.59 Z" fill="#efa217" />
<path d="M 274.25 505.76 C 274.54 506.46 274.83 507.16 275.12 507.86 C 278.02 505.86 282.11 504.18 285.14 506.85 C 288.40 509.32 288.93 513.20 288.61 517.03 C 288.45 520.55 286.68 523.74 283.49 525.38 C 280.05 526.18 277.63 526.11 275.24 523.32 C 275.22 526.24 275.34 529.17 275.19 532.09 C 274.56 534.02 272.22 533.14 270.68 533.46 C 269.45 532.09 269.70 530.71 269.67 529.00 C 269.75 521.62 269.61 514.22 269.72 506.84 C 270.95 505.10 272.42 505.93 274.25 505.76 Z" fill="#efa217" />
<path d="M 323.44 506.49 C 327.87 504.42 334.57 505.38 336.70 510.36 C 339.03 515.44 337.94 522.94 332.24 525.32 C 329.11 526.07 324.55 526.33 321.97 524.01 C 316.76 519.81 317.23 509.55 323.44 506.49 Z" fill="#efa217" />
<path d="M 346.20 505.81 C 346.50 506.48 346.81 507.15 347.11 507.82 C 350.02 505.91 354.13 504.11 357.10 506.88 C 360.62 509.46 360.98 514.01 360.47 518.01 C 360.08 521.18 358.29 523.83 355.50 525.38 C 352.06 526.15 349.57 526.16 347.24 523.29 C 346.95 526.41 348.05 530.70 346.34 533.39 C 345.12 533.38 343.89 533.39 342.66 533.41 C 341.36 532.08 341.70 530.70 341.65 529.00 C 341.73 521.61 341.61 514.20 341.70 506.81 C 342.94 505.07 344.37 505.93 346.20 505.81 Z" fill="#efa217" />
<path d="M 440.69 509.38 C 442.17 511.58 441.62 515.03 441.39 517.54 C 437.42 517.58 433.45 517.56 429.48 517.61 C 429.57 518.17 429.66 518.73 429.75 519.30 C 430.75 520.10 431.75 521.06 432.90 521.61 C 435.14 521.82 437.52 521.38 439.75 521.11 C 440.06 522.18 440.36 523.25 440.67 524.31 C 437.50 526.11 433.40 526.07 429.91 525.42 C 423.77 523.32 422.99 515.55 425.21 510.38 C 427.63 504.28 437.56 503.75 440.69 509.38 Z" fill="#efa217" />
<path d="M 456.89 505.97 C 461.48 507.37 463.58 513.56 461.38 517.63 C 457.62 517.54 453.87 517.57 450.11 517.55 C 450.19 519.81 451.23 520.32 452.81 521.69 C 455.29 521.69 457.64 521.49 460.08 521.02 C 460.34 522.23 460.59 523.44 460.82 524.65 C 456.49 526.25 449.42 526.91 446.39 522.58 C 443.64 518.55 443.86 512.58 446.59 508.58 C 449.16 505.40 453.15 505.01 456.89 505.97 Z" fill="#efa217" />
<path d="M 515.58 506.46 C 518.93 508.28 518.95 511.60 519.21 514.99 C 519.13 518.35 519.50 521.86 518.95 525.18 C 516.99 525.68 514.07 526.46 514.02 523.53 C 510.69 526.76 504.80 526.92 502.63 522.29 C 502.23 519.87 502.03 516.84 504.20 515.18 C 506.46 512.90 510.83 513.50 513.83 512.66 C 513.68 512.02 513.53 511.37 513.39 510.72 C 510.30 508.52 507.71 510.40 504.42 510.89 C 504.11 509.76 503.81 508.63 503.50 507.50 C 506.89 505.56 512.03 504.68 515.58 506.46 Z" fill="#efa217" />
<path d="M 524.16 505.84 C 525.46 505.80 526.76 505.75 528.07 505.71 C 528.53 506.36 529.01 506.99 529.51 507.62 C 531.41 507.22 532.74 505.39 534.98 505.55 C 537.82 505.25 540.35 506.79 541.31 509.47 C 542.20 512.61 542.30 515.76 542.25 519.00 C 542.15 521.37 542.60 523.48 541.42 525.64 C 539.82 525.57 538.22 525.50 536.62 525.44 C 536.50 521.02 536.80 516.55 536.43 512.14 C 536.34 510.55 535.10 510.34 534.05 509.41 C 532.48 510.16 530.97 510.97 529.52 511.95 C 529.38 516.45 529.48 520.96 529.41 525.46 C 527.66 525.50 525.92 525.54 524.17 525.58 C 523.79 519.07 523.83 512.35 524.16 505.84 Z" fill="#efa217" />
<path d="M 552.91 505.70 C 556.08 505.28 558.76 505.61 561.71 506.80 C 561.52 508.14 561.23 509.45 560.83 510.72 C 557.93 509.89 555.54 508.78 552.76 510.78 C 550.74 512.81 550.90 516.69 551.75 519.20 C 553.34 523.08 558.32 521.65 561.33 520.53 C 561.50 521.92 561.67 523.32 561.84 524.71 C 557.67 526.21 551.18 526.79 548.15 522.84 C 545.72 519.89 545.94 516.55 546.21 512.98 C 546.26 509.39 549.65 506.55 552.91 505.70 Z" fill="#efa217" />
<path d="M 579.93 508.04 C 582.35 510.92 581.80 514.07 581.54 517.54 C 577.45 517.60 573.38 517.51 569.30 517.67 C 570.20 519.33 571.05 520.82 572.90 521.58 C 575.19 521.87 577.67 521.36 579.95 521.07 C 580.19 522.26 580.43 523.45 580.68 524.63 C 577.29 525.95 573.32 526.17 569.79 525.33 C 563.82 522.89 562.97 514.88 565.69 509.77 C 568.12 504.66 576.26 504.15 579.93 508.04 Z" fill="#efa217" />
<path d="M 645.08 505.77 C 649.24 505.20 653.28 505.36 655.91 509.06 C 658.09 512.03 657.89 515.36 657.52 518.86 C 656.57 522.33 653.84 525.60 650.00 525.74 C 645.99 526.10 642.30 525.64 640.09 521.89 C 636.67 516.57 638.36 507.55 645.08 505.77 Z" fill="#efa217" />
<path d="M 660.25 506.17 C 661.99 505.34 663.60 505.64 665.27 506.44 C 665.79 510.02 666.56 513.55 666.99 517.14 C 669.01 514.26 669.26 509.96 670.67 506.70 C 671.73 505.26 673.75 505.82 675.33 505.56 C 677.83 509.81 678.60 515.22 679.49 520.01 C 679.56 515.31 680.99 510.99 681.71 506.40 C 683.46 505.49 685.04 505.67 686.92 505.97 C 685.92 512.53 684.18 519.15 682.40 525.54 C 680.78 525.55 679.16 525.56 677.54 525.60 C 675.75 521.20 673.87 516.37 673.50 511.63 C 672.66 516.44 671.07 520.91 669.50 525.52 C 667.78 525.52 666.07 525.53 664.35 525.54 C 662.84 520.51 661.94 515.36 660.61 510.29 C 660.28 508.89 659.90 507.62 660.25 506.17 Z" fill="#efa217" />
<path d="M 721.00 505.57 C 724.31 505.42 727.74 507.45 728.10 510.97 C 728.74 515.72 728.28 520.64 728.39 525.43 C 727.17 525.50 725.96 525.57 724.74 525.64 C 724.14 525.11 723.55 524.58 722.95 524.05 C 720.42 525.70 718.45 526.21 715.42 525.54 C 711.10 524.34 710.46 517.34 713.94 514.92 C 716.11 512.85 720.09 513.46 722.91 512.98 C 722.81 512.14 722.71 511.30 722.62 510.46 C 719.46 508.78 716.98 510.38 713.78 510.96 C 713.56 509.91 713.37 508.87 713.19 507.82 C 714.56 505.67 718.71 505.52 721.00 505.57 Z" fill="#efa217" />
<path d="M 737.21 505.60 C 737.75 506.38 738.30 507.16 738.84 507.94 C 741.72 505.73 743.54 505.38 747.19 505.56 C 749.20 507.07 750.72 508.35 751.07 511.01 C 751.64 515.77 751.18 520.67 751.32 525.46 C 749.75 525.21 745.92 526.55 745.80 524.12 C 745.61 519.57 745.94 515.02 745.55 510.46 C 742.21 509.98 740.64 509.80 738.55 512.71 C 738.67 516.98 738.78 521.30 738.46 525.56 C 736.82 525.56 735.18 525.56 733.54 525.56 C 733.25 519.43 733.42 513.26 733.40 507.12 C 733.02 505.26 736.18 505.90 737.21 505.60 Z" fill="#efa217" />
<path d="M 770.56 506.71 C 771.20 507.61 770.38 509.56 770.37 510.66 C 768.41 510.31 765.88 509.17 763.98 509.91 C 760.02 510.67 759.71 516.90 761.43 519.62 C 763.38 523.05 767.60 521.19 770.72 521.12 C 771.01 522.18 771.30 523.24 771.59 524.29 C 768.56 526.14 764.54 526.04 761.17 525.41 C 754.94 523.02 753.82 514.94 756.64 509.59 C 759.58 504.99 766.01 504.61 770.56 506.71 Z" fill="#efa217" />
<path d="M 790.91 511.06 C 791.29 512.75 791.92 516.45 790.24 517.53 C 786.53 517.69 782.82 517.51 779.11 517.58 C 779.42 518.71 779.43 519.72 780.45 520.48 C 782.50 522.61 786.84 521.23 789.52 521.18 C 789.61 522.36 789.70 523.55 789.80 524.73 C 786.46 525.94 782.41 526.22 778.99 525.23 C 773.17 522.88 772.25 514.87 774.97 509.95 C 777.88 503.62 789.08 504.03 790.91 511.06 Z" fill="#efa217" />
<path d="M 435.25 509.63 C 436.20 511.10 436.66 512.46 436.92 514.18 C 434.44 514.42 431.96 514.45 429.48 514.39 C 429.30 510.97 431.93 508.83 435.25 509.63 Z" fill="#000000" />
<path d="M 454.81 509.57 C 456.99 509.95 456.77 512.71 456.80 514.40 C 454.66 514.39 452.49 514.48 450.35 514.34 C 449.70 513.92 449.47 513.48 449.65 513.04 C 450.62 510.90 452.17 508.92 454.81 509.57 Z" fill="#000000" />
<path d="M 493.34 512.46 C 493.21 515.30 493.72 518.35 491.58 520.60 C 489.71 522.67 486.13 521.42 485.49 518.85 C 485.11 515.42 484.43 511.97 488.00 510.05 C 490.47 508.87 491.82 510.89 493.34 512.46 Z" fill="#000000" />
<path d="M 574.53 509.56 C 576.56 510.00 576.85 512.67 576.78 514.41 C 574.31 514.40 571.85 514.38 569.38 514.33 C 569.64 511.64 571.53 508.96 574.53 509.56 Z" fill="#000000" />
<path d="M 279.84 510.17 C 282.85 509.92 283.53 513.75 283.41 516.01 C 283.42 519.15 281.46 522.41 277.88 521.46 C 274.44 519.61 275.41 515.47 275.21 512.24 C 276.64 510.81 277.71 509.94 279.84 510.17 Z" fill="#000000" />
<path d="M 326.21 510.22 C 328.75 508.68 331.45 510.32 332.21 512.94 C 332.77 515.63 332.84 519.62 330.21 521.31 C 327.65 522.27 325.26 521.54 324.27 518.87 C 323.47 516.41 323.39 511.50 326.21 510.22 Z" fill="#000000" />
<path d="M 354.01 510.78 C 356.06 513.82 356.06 519.47 352.53 521.44 C 351.12 521.75 349.50 521.73 348.56 520.45 C 346.67 518.55 347.37 514.72 347.20 512.23 C 348.95 510.00 351.53 509.57 354.01 510.78 Z" fill="#000000" />
<path d="M 651.84 512.12 C 652.80 514.42 652.79 518.21 651.28 520.29 C 649.92 522.09 648.33 521.51 646.36 521.66 C 643.28 519.15 643.17 515.00 644.61 511.56 C 646.51 508.91 650.46 509.11 651.84 512.12 Z" fill="#000000" />
<path d="M 702.57 512.33 C 702.24 515.09 703.35 519.01 700.70 520.72 C 699.60 521.93 698.24 521.69 696.82 521.29 C 693.65 519.29 693.51 513.31 696.06 510.83 C 698.39 509.44 701.00 510.06 702.57 512.33 Z" fill="#000000" />
<path d="M 783.00 509.49 C 785.63 509.14 786.25 512.36 786.36 514.33 C 783.88 514.44 781.44 514.43 778.96 514.23 C 779.22 511.87 780.20 509.40 783.00 509.49 Z" fill="#000000" />
<path d="M 513.67 516.60 C 513.62 517.60 513.58 518.59 513.53 519.59 C 511.71 521.72 510.90 521.75 508.15 521.82 C 507.71 520.39 506.86 519.33 507.99 517.96 C 509.35 516.22 511.72 516.82 513.67 516.60 Z" fill="#000000" />
<path d="M 722.68 516.54 C 723.93 518.12 722.63 519.39 721.72 520.75 C 720.91 522.03 718.72 521.57 717.41 521.73 C 717.09 520.83 716.84 519.93 716.66 519.01 C 717.94 516.53 720.27 516.71 722.68 516.54 Z" fill="#000000" />
<path d="M 221.14 549.27 C 223.73 549.11 226.35 549.22 228.94 549.24 C 234.72 594.12 251.54 637.45 277.47 674.52 C 304.33 713.07 340.89 745.00 382.85 766.15 C 433.08 791.74 491.10 801.60 546.99 794.41 C 610.89 786.69 671.23 756.16 715.85 709.86 C 736.05 689.00 753.03 664.99 766.03 639.03 C 780.13 610.88 789.34 580.45 793.53 549.25 C 796.15 549.22 798.78 549.20 801.40 549.16 C 801.42 550.11 801.41 551.06 801.35 552.01 C 798.79 569.33 795.01 586.43 789.52 603.08 C 778.58 636.54 761.47 668.00 739.36 695.39 C 704.01 739.44 655.82 772.95 602.05 790.37 C 545.44 808.99 482.97 809.50 425.97 792.18 C 391.25 781.60 358.50 764.47 330.04 741.94 C 275.07 698.83 236.46 635.71 223.60 567.00 C 222.52 561.01 221.23 555.40 221.14 549.27 Z" fill="#efa217" />
<path d="M 232.17 549.27 C 311.62 549.18 392.21 549.26 471.79 549.23 C 471.84 553.16 471.45 556.81 472.34 560.51 C 473.76 566.09 473.01 572.24 473.18 578.01 C 472.59 583.37 471.08 588.71 469.78 593.94 C 468.73 600.66 469.64 607.26 468.84 613.99 C 468.82 620.69 468.47 627.34 469.49 633.99 C 469.74 638.91 471.33 642.98 469.52 647.83 C 468.00 652.26 469.62 656.61 468.03 661.04 C 466.58 666.92 463.27 671.63 460.71 676.99 C 459.52 684.69 463.13 691.86 470.44 694.81 C 473.82 696.23 476.72 695.19 480.05 694.34 C 480.83 693.41 481.62 692.49 482.42 691.57 C 483.05 683.65 482.79 675.86 481.76 668.00 C 482.13 662.04 482.06 655.90 483.35 650.05 C 483.44 647.48 483.02 644.71 483.46 642.18 C 485.27 634.77 487.14 627.45 490.06 620.38 C 491.04 613.40 493.69 607.21 493.33 599.99 C 494.10 595.03 494.68 590.17 496.44 585.51 C 498.91 577.77 502.21 571.85 503.58 563.99 C 503.81 558.94 505.90 554.44 505.74 549.34 C 514.19 549.09 522.66 549.29 531.12 549.23 C 531.93 556.99 533.64 564.50 534.70 572.21 C 535.49 576.60 537.77 580.38 538.85 584.72 C 539.69 588.10 541.83 590.40 541.74 594.00 C 542.55 600.68 542.32 607.35 542.78 614.05 C 544.02 619.36 545.52 624.62 546.64 629.97 C 547.73 635.58 550.02 640.15 549.58 646.00 C 549.46 649.31 548.09 651.84 548.86 654.94 C 549.90 659.34 549.13 663.40 549.50 668.00 C 550.09 676.04 549.73 684.01 549.41 692.03 C 549.10 695.63 551.91 697.08 554.99 697.60 C 558.55 697.85 561.82 698.04 564.91 695.97 C 567.88 693.43 570.71 691.14 571.33 687.04 C 572.39 683.23 570.11 679.87 568.79 676.25 C 564.38 668.32 564.63 659.70 563.79 651.00 C 562.27 644.73 564.28 639.54 564.58 632.95 C 567.76 615.32 567.30 597.24 563.20 579.81 C 561.95 575.96 561.08 572.04 560.80 568.00 C 561.52 561.73 562.72 555.62 562.35 549.26 C 636.22 549.17 710.12 549.26 784.00 549.22 C 786.14 549.21 788.28 549.26 790.42 549.33 C 789.13 556.82 788.07 564.35 786.34 571.78 C 774.56 626.89 745.56 677.95 704.54 716.55 C 661.68 757.31 605.78 783.99 547.04 791.23 C 494.46 798.18 439.85 789.61 391.86 767.04 C 360.34 752.24 331.63 731.58 307.60 706.40 C 266.69 663.62 239.66 608.04 232.17 549.27 Z" fill="#ffffff" />
<path d="M 435.26 709.62 C 436.94 709.48 438.58 709.60 440.25 709.73 C 440.17 718.63 440.23 727.53 440.21 736.43 C 438.47 736.41 436.73 736.39 434.99 736.35 C 431.22 729.42 426.42 722.92 423.26 715.70 C 423.96 722.64 423.63 729.49 423.70 736.44 C 422.01 736.43 420.32 736.41 418.63 736.40 C 418.67 727.47 418.64 718.55 418.65 709.62 C 420.47 709.60 422.29 709.59 424.12 709.58 C 427.95 716.46 432.23 723.11 435.61 730.21 C 434.94 723.39 435.17 716.47 435.26 709.62 Z" fill="#000000" />
<path d="M 572.26 709.69 C 572.82 711.38 573.14 712.55 572.16 714.17 C 570.84 714.77 569.14 714.81 567.83 714.18 C 566.82 712.57 567.16 711.37 567.71 709.69 C 569.34 709.28 570.64 709.29 572.26 709.69 Z" fill="#000000" />
<path d="M 556.83 709.66 C 558.40 709.60 559.97 709.53 561.53 709.46 C 562.03 718.39 561.56 727.39 561.79 736.34 C 560.13 736.38 558.48 736.40 556.83 736.42 C 556.84 727.50 556.84 718.58 556.83 709.66 Z" fill="#000000" />
<path d="M 508.67 711.71 C 509.81 711.74 510.95 711.78 512.09 711.82 C 512.12 713.69 512.16 715.56 512.22 717.42 C 514.01 717.40 515.80 717.39 517.59 717.37 L 517.64 720.79 C 515.83 720.79 514.02 720.79 512.21 720.78 C 512.09 724.74 511.95 728.67 512.42 732.62 C 514.00 732.80 515.51 732.68 517.08 732.45 C 517.25 733.63 517.43 734.81 517.60 736.00 C 514.70 736.99 511.08 737.52 508.58 735.31 C 506.28 731.33 507.50 725.32 507.19 720.85 C 506.23 720.82 505.28 720.79 504.32 720.75 C 504.33 719.63 504.33 718.50 504.34 717.37 C 505.32 717.39 506.29 717.41 507.27 717.42 C 507.67 715.50 508.14 713.60 508.67 711.71 Z" fill="#000000" />
<path d="M 579.94 711.80 C 581.10 711.79 582.26 711.78 583.42 711.76 C 583.44 713.65 583.48 715.53 583.53 717.42 C 585.29 717.40 587.06 717.39 588.83 717.38 C 588.83 718.52 588.83 719.66 588.84 720.80 C 587.05 720.80 585.26 720.80 583.47 720.80 C 583.59 724.57 583.04 728.59 583.84 732.27 C 584.96 733.34 586.84 732.51 588.27 732.42 C 588.50 733.59 588.73 734.76 588.96 735.93 C 586.30 736.91 583.63 737.36 580.97 736.08 C 579.36 735.09 578.68 732.82 578.63 731.03 C 578.51 727.64 578.65 724.24 578.54 720.84 C 577.58 720.81 576.61 720.77 575.65 720.73 C 575.66 719.61 575.68 718.49 575.69 717.37 C 576.61 717.40 577.53 717.43 578.46 717.45 C 578.99 715.58 579.48 713.70 579.94 711.80 Z" fill="#000000" />
<path d="M 461.36 721.53 C 461.97 723.71 461.68 726.23 461.62 728.49 C 457.53 728.52 453.45 728.46 449.36 728.56 C 450.07 730.32 450.53 731.84 452.42 732.60 C 455.01 734.01 457.08 732.86 459.64 732.06 C 460.03 733.19 460.42 734.32 460.81 735.45 C 457.02 737.11 452.19 737.59 448.51 735.44 C 444.12 732.52 443.76 725.44 446.02 721.10 C 448.98 715.30 458.75 715.50 461.36 721.53 Z" fill="#000000" />
<path d="M 466.30 717.44 C 467.85 717.34 469.41 717.36 470.95 717.36 C 471.54 722.09 470.75 726.94 471.43 731.63 C 472.93 734.18 477.15 732.44 478.46 730.33 C 478.29 726.01 478.38 721.68 478.38 717.35 C 480.05 717.38 481.73 717.43 483.40 717.50 C 483.30 723.82 483.36 730.13 483.36 736.45 C 480.83 736.00 478.59 737.68 478.24 734.17 C 476.57 735.49 475.34 736.88 473.03 736.85 C 469.85 737.07 466.77 735.18 466.38 731.88 C 466.16 727.09 466.24 722.23 466.30 717.44 Z" fill="#000000" />
<path d="M 501.55 717.81 C 501.41 719.08 501.26 720.35 501.11 721.61 C 499.10 721.24 497.01 720.69 494.96 720.67 C 493.45 721.14 491.44 721.96 493.34 723.61 C 496.06 725.35 499.65 725.51 501.52 728.42 C 503.44 731.11 501.92 734.83 499.03 736.03 C 495.47 737.47 491.04 736.96 487.59 735.41 C 487.91 734.30 488.23 733.19 488.54 732.07 C 490.41 732.39 492.24 732.80 494.07 733.33 C 496.19 732.34 498.25 733.20 497.27 729.94 C 494.88 728.35 491.87 727.92 489.58 726.30 C 487.05 724.25 487.26 719.79 490.17 718.12 C 494.05 716.09 497.50 717.04 501.55 717.81 Z" fill="#000000" />
<path d="M 530.97 716.68 C 531.90 717.00 532.82 717.32 533.74 717.65 C 533.53 719.00 533.31 720.34 533.10 721.68 C 531.64 721.65 530.18 721.62 528.72 721.59 C 527.97 722.19 527.21 722.78 526.46 723.38 C 526.40 727.72 526.44 732.06 526.43 736.41 C 524.78 736.41 523.12 736.42 521.47 736.43 C 521.46 730.09 521.47 723.75 521.46 717.42 C 522.79 717.39 524.12 717.36 525.45 717.33 C 525.89 718.22 526.33 719.11 526.76 720.01 C 527.76 717.69 528.76 717.40 530.97 716.68 Z" fill="#000000" />
<path d="M 548.15 717.55 C 552.27 719.63 553.16 723.90 552.27 728.14 C 548.71 729.05 543.93 728.21 540.15 728.49 C 540.49 730.38 541.35 731.95 543.19 732.65 C 545.74 734.03 547.78 732.74 550.34 732.15 C 550.75 733.22 551.17 734.28 551.58 735.35 C 548.17 736.99 543.62 737.54 540.12 735.93 C 534.57 733.38 534.18 724.68 537.29 720.18 C 539.65 716.56 544.40 716.71 548.15 717.55 Z" fill="#000000" />
<path d="M 567.57 717.41 C 569.20 717.34 570.84 717.41 572.46 717.46 C 572.37 723.78 572.42 730.10 572.43 736.42 C 570.80 736.42 569.17 736.43 567.55 736.43 C 567.57 730.10 567.48 723.75 567.57 717.41 Z" fill="#000000" />
<path d="M 592.45 717.38 C 597.19 717.40 601.94 717.37 606.69 717.41 L 606.44 720.06 C 603.82 724.49 600.25 728.47 598.04 733.12 C 600.96 733.21 603.88 733.21 606.81 733.18 C 606.82 734.25 606.84 735.32 606.85 736.39 C 601.77 736.44 596.69 736.41 591.61 736.41 L 591.84 733.96 C 594.17 729.58 597.94 725.63 600.00 721.18 C 598.20 720.26 594.56 721.06 592.43 720.79 L 592.45 717.38 Z" fill="#000000" />
<path d="M 545.55 720.51 C 548.03 721.22 547.68 723.58 548.01 725.65 C 545.35 725.63 542.68 725.63 540.01 725.62 C 540.38 722.55 542.06 719.82 545.55 720.51 Z" fill="#ffffff" />
<path d="M 455.14 720.48 C 457.05 721.57 457.23 723.61 457.57 725.55 C 454.83 725.64 452.09 725.66 449.35 725.61 C 449.54 722.53 451.80 719.72 455.14 720.48 Z" fill="#ffffff" />
<path d="M 513.18 746.72 C 516.72 746.42 521.85 744.81 523.73 748.95 C 523.01 750.12 522.43 751.29 521.49 752.25 L 521.53 749.66 C 519.20 747.99 515.31 748.89 512.73 749.61 C 510.54 751.35 509.47 751.77 506.61 752.01 C 508.20 748.89 509.63 747.38 513.18 746.72 Z" fill="#000000" />
<path d="M 468.21 746.15 C 468.77 747.07 469.12 748.02 469.27 749.01 C 468.39 753.20 466.41 756.89 465.10 760.92 L 467.37 759.43 C 469.12 756.21 472.88 753.89 476.46 753.43 C 476.39 754.61 476.32 755.80 476.24 756.98 C 475.59 758.08 474.93 759.16 474.27 760.25 C 475.16 760.41 476.01 760.65 476.83 760.98 C 476.94 762.52 474.35 763.12 473.38 763.80 C 473.24 762.63 473.33 761.44 473.64 760.24 L 470.30 761.10 C 472.14 759.53 473.68 757.93 475.02 755.93 C 472.97 756.49 471.25 757.57 469.49 758.72 C 469.38 759.41 469.28 760.10 469.19 760.80 C 470.15 761.19 471.13 761.54 472.13 761.84 C 470.94 762.27 469.73 762.64 468.52 762.96 C 468.16 761.99 467.81 761.03 467.45 760.06 C 463.86 761.39 462.81 763.97 460.86 766.92 C 459.59 768.45 458.61 770.72 456.35 770.75 C 456.49 767.51 458.96 765.18 461.35 763.31 C 463.35 761.94 463.99 759.94 464.96 757.84 C 466.19 754.77 467.59 751.41 467.72 748.09 C 463.60 749.43 461.98 753.81 460.67 757.52 L 461.99 757.92 C 461.08 759.32 460.24 760.44 458.75 761.29 C 458.00 754.87 461.55 747.73 468.21 746.15 Z" fill="#000000" />
<path d="M 528.22 747.84 C 528.96 749.57 527.17 751.60 525.44 750.58 C 524.89 749.15 526.78 747.33 528.22 747.84 Z" fill="#000000" />
<path d="M 531.91 747.84 C 532.03 748.72 531.89 749.62 531.49 750.54 C 530.80 750.82 530.06 750.89 529.26 750.77 C 528.91 749.10 530.04 747.19 531.91 747.84 Z" fill="#000000" />
<path d="M 516.87 749.89 L 514.91 753.00 C 516.94 752.75 518.96 752.60 520.99 752.57 C 518.62 753.73 516.27 753.50 513.67 753.76 L 512.77 753.05 C 514.03 751.79 515.31 750.76 516.87 749.89 Z" fill="#000000" />
<path d="M 538.81 749.94 C 538.80 751.76 538.72 753.54 538.36 755.33 C 537.54 755.35 536.72 755.38 535.90 755.40 C 535.01 756.91 534.39 758.29 534.07 760.02 C 534.40 760.98 534.71 761.95 534.98 762.93 C 534.12 763.19 532.11 764.50 531.96 762.92 L 531.74 760.97 C 529.81 761.52 528.39 762.40 526.84 763.66 C 526.55 762.77 526.23 761.88 525.91 761.01 C 524.17 761.47 523.51 763.12 521.62 762.40 C 520.39 758.60 522.41 755.61 525.79 754.03 C 526.44 757.44 522.01 757.59 522.72 760.82 C 526.03 758.87 528.00 755.86 530.76 753.31 C 530.73 754.15 530.70 754.99 530.66 755.82 C 529.53 757.64 527.64 758.84 528.58 761.23 C 529.80 760.56 530.99 759.85 532.16 759.12 C 532.60 757.90 533.22 756.75 534.03 755.67 C 533.42 755.21 532.82 754.75 532.21 754.29 C 534.52 752.27 537.06 752.83 538.81 749.94 Z" fill="#000000" />
<path d="M 545.59 749.91 C 545.42 751.39 546.16 754.32 544.56 755.16 C 541.35 755.30 540.68 759.10 540.65 761.64 C 545.55 760.99 544.83 755.83 549.30 754.96 C 548.33 756.61 547.37 758.26 546.42 759.93 C 549.08 758.21 550.70 755.54 553.64 754.14 C 554.18 757.20 551.76 758.13 551.03 760.91 L 554.10 760.24 C 555.65 756.77 557.64 753.82 561.90 754.13 C 561.83 756.51 560.70 757.23 559.10 758.74 C 559.41 757.51 559.72 756.28 560.01 755.04 C 557.25 756.00 556.75 758.88 556.81 761.41 C 558.97 761.95 560.28 760.86 562.07 759.96 C 560.16 761.98 558.97 763.76 555.82 763.62 C 555.27 762.64 554.71 761.66 554.15 760.68 C 552.68 761.78 551.18 762.81 549.58 763.71 C 549.06 761.49 549.68 760.09 550.60 758.03 C 548.58 759.03 547.28 761.30 545.87 763.03 C 545.42 762.10 544.97 761.17 544.52 760.23 C 542.65 762.01 541.25 763.64 538.53 763.74 C 538.55 762.34 538.58 760.95 538.63 759.56 C 537.63 760.51 536.55 761.36 535.41 762.09 C 535.95 760.57 537.03 760.10 538.32 759.38 C 539.06 758.03 540.02 756.87 541.03 755.73 C 540.25 755.17 539.47 754.59 538.70 754.02 C 540.19 753.12 541.60 752.65 543.29 752.31 C 544.08 751.52 544.83 750.71 545.59 749.91 Z" fill="#000000" />
<path d="M 497.15 754.11 C 497.15 756.13 495.91 758.29 495.23 760.15 C 495.79 761.99 498.18 759.91 499.20 759.45 C 497.68 761.26 496.24 763.48 493.62 763.56 C 493.61 762.05 493.54 760.59 493.28 759.11 C 493.95 758.08 494.60 757.03 495.20 755.96 C 493.27 756.84 488.47 758.47 489.83 761.34 L 493.30 759.47 C 492.68 761.13 491.80 762.20 490.67 762.67 C 488.49 763.33 488.77 761.75 488.06 760.25 C 486.70 761.42 485.33 762.58 483.83 763.57 C 481.13 761.84 483.87 760.24 484.69 758.26 C 483.52 758.57 482.40 758.65 481.33 758.50 C 483.28 757.08 485.18 755.17 487.43 754.27 C 487.43 754.98 487.44 755.69 487.44 756.39 C 486.20 757.80 485.35 759.06 484.71 760.87 L 487.15 760.35 C 489.02 757.38 491.55 755.08 494.86 753.83 C 495.81 753.69 496.62 752.95 497.15 754.11 Z" fill="#000000" />
<path d="M 512.77 753.05 L 513.67 753.76 L 513.55 755.57 C 511.26 756.91 509.94 757.67 510.25 760.62 C 512.72 761.00 517.74 761.16 517.82 757.64 C 516.20 757.23 514.82 756.52 513.69 755.52 C 516.07 756.22 521.18 756.24 519.52 760.15 C 516.77 762.88 512.72 764.26 508.89 763.28 C 505.96 761.31 508.45 758.78 509.62 756.64 C 509.64 755.93 509.09 755.34 507.95 754.88 C 509.55 754.32 511.32 753.93 512.77 753.05 Z" fill="#000000" />
<path d="M 569.57 754.67 C 568.51 756.70 567.26 758.62 566.15 760.63 C 567.50 760.53 568.86 760.38 570.20 760.19 C 568.80 761.32 567.39 762.45 565.93 763.53 C 563.56 761.00 565.89 759.60 565.92 756.53 L 562.69 758.76 L 562.65 755.91 C 563.95 753.20 567.18 754.81 569.57 754.67 Z" fill="#000000" />
<path d="M 482.82 755.15 C 482.18 756.69 481.16 757.95 480.11 759.24 C 480.67 759.73 481.23 760.22 481.79 760.71 C 480.86 761.44 479.93 762.17 479.00 762.90 C 477.44 759.51 478.71 758.23 480.77 755.62 C 481.45 755.45 482.13 755.29 482.82 755.15 Z" fill="#000000" />
</svg>